<svg width="900" height="580" viewBox="0 0 900 580" xmlns="http://www.w3.org/2000/svg">
  <defs>
    <filter id="shadow" x="-10%" y="-10%" width="120%" height="120%">
      <feDropShadow dx="0" dy="4" stdDeviation="12" flood-color="#0000001a"/>
    </filter>
    <linearGradient id="toolbarGrad" x1="0%" y1="0%" x2="0%" y2="100%">
      <stop offset="0%" style="stop-color:#F9FAFB;stop-opacity:1" />
      <stop offset="100%" style="stop-color:#F3F4F6;stop-opacity:1" />
    </linearGradient>
  </defs>

  <!-- App Window -->
  <rect width="900" height="580" rx="12" fill="white" filter="url(#shadow)"/>

  <!-- Title Bar -->
  <rect width="900" height="42" rx="12" fill="#F9FAFB"/>
  <rect y="30" width="900" height="12" fill="#F9FAFB"/>
  <rect y="42" width="900" height="1" fill="#E5E7EB"/>

  <!-- Traffic lights -->
  <circle cx="20" cy="21" r="6" fill="#FF5F57"/>
  <circle cx="38" cy="21" r="6" fill="#FEBC2E"/>
  <circle cx="56" cy="21" r="6" fill="#28C840"/>

  <!-- Title -->
  <text x="450" y="27" text-anchor="middle" font-family="Inter,Arial" font-size="13" fill="#6B7280" font-weight="500">Speed PDF — annual-report-2025.pdf</text>

  <!-- Toolbar -->
  <rect y="43" width="900" height="44" fill="url(#toolbarGrad)"/>
  <rect y="87" width="900" height="1" fill="#E5E7EB"/>

  <!-- Toolbar buttons -->
  <rect x="12" y="53" width="65" height="24" rx="5" fill="#4F46E5"/>
  <text x="44" y="68" text-anchor="middle" font-family="Inter,Arial" font-size="11" fill="white" font-weight="600">Open</text>
  <rect x="83" y="53" width="65" height="24" rx="5" fill="white" stroke="#E5E7EB" stroke-width="1"/>
  <text x="115" y="68" text-anchor="middle" font-family="Inter,Arial" font-size="11" fill="#374151">Save</text>
  <rect x="154" y="53" width="65" height="24" rx="5" fill="white" stroke="#E5E7EB" stroke-width="1"/>
  <text x="186" y="68" text-anchor="middle" font-family="Inter,Arial" font-size="11" fill="#374151">Merge</text>
  <rect x="225" y="53" width="65" height="24" rx="5" fill="white" stroke="#E5E7EB" stroke-width="1"/>
  <text x="257" y="68" text-anchor="middle" font-family="Inter,Arial" font-size="11" fill="#374151">Annotate</text>
  <rect x="296" y="53" width="65" height="24" rx="5" fill="white" stroke="#E5E7EB" stroke-width="1"/>
  <text x="328" y="68" text-anchor="middle" font-family="Inter,Arial" font-size="11" fill="#374151">Sign</text>

  <!-- AI button (special) -->
  <rect x="367" y="53" width="80" height="24" rx="5" fill="#EEF2FF" stroke="#C7D2FE" stroke-width="1"/>
  <text x="407" y="68" text-anchor="middle" font-family="Inter,Arial" font-size="11" fill="#4F46E5" font-weight="600">✦ AI Ask</text>

  <!-- Zoom controls -->
  <text x="760" y="68" text-anchor="middle" font-family="Inter,Arial" font-size="12" fill="#9CA3AF">−  100%  +</text>

  <!-- Left Panel (Page Thumbnails) -->
  <rect x="0" y="88" width="100" height="492" rx="0" fill="#F9FAFB"/>
  <rect x="100" y="88" width="1" height="492" fill="#E5E7EB"/>

  <!-- Page thumbnails -->
  <rect x="12" y="104" width="76" height="96" rx="4" fill="white" stroke="#4F46E5" stroke-width="2"/>
  <rect x="16" y="108" width="68" height="4" rx="1" fill="#E5E7EB"/>
  <rect x="16" y="116" width="68" height="3" rx="1" fill="#E5E7EB"/>
  <rect x="16" y="122" width="50" height="3" rx="1" fill="#E5E7EB"/>
  <rect x="16" y="132" width="68" height="3" rx="1" fill="#E5E7EB"/>
  <rect x="16" y="138" width="60" height="3" rx="1" fill="#E5E7EB"/>
  <rect x="16" y="148" width="68" height="3" rx="1" fill="#E5E7EB"/>
  <rect x="16" y="154" width="40" height="3" rx="1" fill="#E5E7EB"/>
  <rect x="16" y="164" width="68" height="18" rx="2" fill="#F3F4F6"/>
  <rect x="16" y="186" width="50" height="3" rx="1" fill="#E5E7EB"/>
  <rect x="16" y="192" width="68" height="3" rx="1" fill="#E5E7EB"/>
  <text x="50" y="210" text-anchor="middle" font-family="Inter,Arial" font-size="9" fill="#4F46E5" font-weight="600">1</text>

  <rect x="12" y="212" width="76" height="96" rx="4" fill="white" stroke="#E5E7EB" stroke-width="1"/>
  <rect x="16" y="216" width="68" height="4" rx="1" fill="#E5E7EB"/>
  <rect x="16" y="224" width="68" height="3" rx="1" fill="#E5E7EB"/>
  <rect x="16" y="230" width="50" height="3" rx="1" fill="#E5E7EB"/>
  <rect x="16" y="240" width="68" height="3" rx="1" fill="#E5E7EB"/>
  <rect x="16" y="246" width="60" height="3" rx="1" fill="#E5E7EB"/>
  <rect x="16" y="256" width="68" height="3" rx="1" fill="#E5E7EB"/>
  <rect x="16" y="262" width="40" height="3" rx="1" fill="#E5E7EB"/>
  <rect x="16" y="272" width="68" height="18" rx="2" fill="#F3F4F6"/>
  <rect x="16" y="294" width="50" height="3" rx="1" fill="#E5E7EB"/>
  <rect x="16" y="300" width="68" height="3" rx="1" fill="#E5E7EB"/>
  <text x="50" y="318" text-anchor="middle" font-family="Inter,Arial" font-size="9" fill="#9CA3AF">2</text>

  <rect x="12" y="320" width="76" height="96" rx="4" fill="white" stroke="#E5E7EB" stroke-width="1"/>
  <rect x="16" y="324" width="68" height="4" rx="1" fill="#E5E7EB"/>
  <rect x="16" y="332" width="68" height="3" rx="1" fill="#E5E7EB"/>
  <rect x="16" y="338" width="50" height="3" rx="1" fill="#E5E7EB"/>
  <rect x="16" y="348" width="68" height="3" rx="1" fill="#E5E7EB"/>
  <rect x="16" y="354" width="60" height="3" rx="1" fill="#E5E7EB"/>
  <text x="50" y="426" text-anchor="middle" font-family="Inter,Arial" font-size="9" fill="#9CA3AF">3</text>

  <!-- Main PDF Viewer Area -->
  <rect x="101" y="88" width="560" height="492" fill="#6B728030" fill-opacity="0.15"/>
  <!-- PDF Page -->
  <rect x="181" y="110" width="400" height="520" rx="4" fill="white"/>
  <rect x="181" y="110" width="400" height="520" rx="4" fill="none" stroke="#D1D5DB" stroke-width="1"/>

  <!-- PDF Content Lines -->
  <!-- Header -->
  <rect x="200" y="128" width="200" height="14" rx="2" fill="#111827"/>
  <rect x="200" y="148" width="140" height="8" rx="2" fill="#6B7280"/>
  <rect x="200" y="162" width="100" height="6" rx="2" fill="#9CA3AF"/>

  <!-- Divider line -->
  <rect x="200" y="176" width="360" height="1" fill="#E5E7EB"/>

  <!-- Body text lines -->
  <rect x="200" y="186" width="360" height="6" rx="2" fill="#D1D5DB"/>
  <rect x="200" y="197" width="360" height="6" rx="2" fill="#D1D5DB"/>
  <rect x="200" y="208" width="280" height="6" rx="2" fill="#D1D5DB"/>

  <!-- Chart/image placeholder -->
  <rect x="200" y="222" width="360" height="120" rx="4" fill="#F3F4F6"/>
  <rect x="200" y="222" width="360" height="120" rx="4" fill="none" stroke="#E5E7EB" stroke-width="1"/>
  <!-- Bar chart -->
  <rect x="240" y="302" width="24" height="30" rx="2" fill="#4F46E5" fill-opacity="0.4"/>
  <rect x="274" y="282" width="24" height="50" rx="2" fill="#4F46E5" fill-opacity="0.6"/>
  <rect x="308" y="272" width="24" height="60" rx="2" fill="#4F46E5" fill-opacity="0.8"/>
  <rect x="342" y="292" width="24" height="40" rx="2" fill="#4F46E5" fill-opacity="0.6"/>
  <rect x="376" y="262" width="24" height="70" rx="2" fill="#4F46E5"/>
  <rect x="410" y="276" width="24" height="56" rx="2" fill="#4F46E5" fill-opacity="0.7"/>
  <rect x="444" y="288" width="24" height="44" rx="2" fill="#4F46E5" fill-opacity="0.5"/>

  <!-- Text annotation highlight -->
  <rect x="200" y="350" width="360" height="6" rx="2" fill="#D1D5DB"/>
  <rect x="200" y="361" width="360" height="6" rx="2" fill="#D1D5DB"/>
  <rect x="200" y="372" width="200" height="6" rx="2" fill="#D1D5DB"/>

  <!-- Highlight annotation -->
  <rect x="200" y="384" width="360" height="6" rx="2" fill="#D1D5DB"/>
  <rect x="200" y="384" width="180" height="8" rx="2" fill="#FEF08A" fill-opacity="0.7"/>

  <rect x="200" y="395" width="360" height="6" rx="2" fill="#D1D5DB"/>
  <rect x="200" y="406" width="260" height="6" rx="2" fill="#D1D5DB"/>

  <!-- Comment bubble -->
  <rect x="420" y="380" width="120" height="40" rx="6" fill="#FFFBEB" stroke="#FDE68A" stroke-width="1"/>
  <text x="430" y="396" font-family="Inter,Arial" font-size="8" fill="#92400E">💬 Review this</text>
  <text x="430" y="410" font-family="Inter,Arial" font-size="8" fill="#92400E" font-weight="500">section carefully</text>

  <!-- More text lines -->
  <rect x="200" y="420" width="360" height="6" rx="2" fill="#D1D5DB"/>
  <rect x="200" y="431" width="300" height="6" rx="2" fill="#D1D5DB"/>
  <rect x="200" y="442" width="360" height="6" rx="2" fill="#D1D5DB"/>
  <rect x="200" y="453" width="340" height="6" rx="2" fill="#D1D5DB"/>
  <rect x="200" y="464" width="200" height="6" rx="2" fill="#D1D5DB"/>

  <!-- Page number -->
  <text x="381" y="618" text-anchor="middle" font-family="Inter,Arial" font-size="10" fill="#9CA3AF">Page 1 of 12</text>

  <!-- Right Panel (AI Assistant) -->
  <rect x="661" y="88" width="239" height="492" fill="white"/>
  <rect x="661" y="88" width="1" height="492" fill="#E5E7EB"/>

  <!-- AI Panel Header -->
  <rect x="661" y="88" width="239" height="48" fill="#F5F3FF"/>
  <text x="680" y="108" font-family="Inter,Arial" font-size="13" fill="#4F46E5" font-weight="700">✦ AI Assistant</text>
  <text x="680" y="124" font-family="Inter,Arial" font-size="10" fill="#7C3AED">Powered by Edge AI • Private</text>

  <!-- AI Chat messages -->
  <rect x="671" y="146" width="219" height="52" rx="8" fill="#F3F4F6"/>
  <text x="681" y="162" font-family="Inter,Arial" font-size="10" fill="#374151" font-weight="600">You</text>
  <text x="681" y="176" font-family="Inter,Arial" font-size="10" fill="#4B5563">Summarize the key</text>
  <text x="681" y="189" font-family="Inter,Arial" font-size="10" fill="#4B5563">financial findings</text>

  <rect x="671" y="206" width="219" height="96" rx="8" fill="#EEF2FF"/>
  <text x="681" y="222" font-family="Inter,Arial" font-size="10" fill="#4F46E5" font-weight="600">✦ Speed AI</text>
  <text x="681" y="238" font-family="Inter,Arial" font-size="10" fill="#4B5563">Revenue grew 34% YoY</text>
  <text x="681" y="252" font-family="Inter,Arial" font-size="10" fill="#4B5563">to $4.2M. Q4 showed</text>
  <text x="681" y="266" font-family="Inter,Arial" font-size="10" fill="#4B5563">strongest performance.</text>
  <text x="681" y="282" font-family="Inter,Arial" font-size="10" fill="#4B5563">Margins improved by 8%.</text>
  <text x="681" y="296" font-family="Inter,Arial" font-size="9" fill="#7C3AED">▶ Jump to section</text>

  <rect x="671" y="310" width="219" height="38" rx="8" fill="#F3F4F6"/>
  <text x="681" y="326" font-family="Inter,Arial" font-size="10" fill="#374151" font-weight="600">You</text>
  <text x="681" y="340" font-family="Inter,Arial" font-size="10" fill="#4B5563">Extract action items</text>

  <rect x="671" y="356" width="219" height="80" rx="8" fill="#EEF2FF"/>
  <text x="681" y="372" font-family="Inter,Arial" font-size="10" fill="#4F46E5" font-weight="600">✦ Speed AI</text>
  <text x="681" y="388" font-family="Inter,Arial" font-size="10" fill="#4B5563">1. Hire 5 engineers Q1</text>
  <text x="681" y="402" font-family="Inter,Arial" font-size="10" fill="#4B5563">2. Launch product v2</text>
  <text x="681" y="416" font-family="Inter,Arial" font-size="10" fill="#4B5563">3. Expand to APAC</text>
  <text x="681" y="430" font-family="Inter,Arial" font-size="9" fill="#7C3AED">▶ Copy to clipboard</text>

  <!-- AI Input box -->
  <rect x="665" y="510" width="231" height="56" rx="0" fill="white"/>
  <rect x="665" y="510" width="231" height="1" fill="#E5E7EB"/>
  <rect x="671" y="518" width="219" height="32" rx="8" fill="#F9FAFB" stroke="#E5E7EB" stroke-width="1"/>
  <text x="683" y="538" font-family="Inter,Arial" font-size="10" fill="#9CA3AF">Ask anything about this PDF…</text>
  <rect x="872" y="522" width="14" height="24" rx="4" fill="#4F46E5" fill-opacity="0.8"/>
  <text x="879" y="538" text-anchor="middle" font-family="Inter,Arial" font-size="10" fill="white">↑</text>

  <!-- Status bar -->
  <rect x="0" y="564" width="900" height="16" fill="#F9FAFB"/>
  <rect x="0" y="564" width="900" height="1" fill="#E5E7EB"/>
  <text x="12" y="576" font-family="Inter,Arial" font-size="9" fill="#9CA3AF">⚡ Speed PDF  •  12 pages  •  2.4 MB  •  All changes saved</text>
  <text x="888" y="576" text-anchor="end" font-family="Inter,Arial" font-size="9" fill="#9CA3AF">v1.0</text>
</svg>
