<svg width="900" height="580" viewBox="0 0 900 580" xmlns="http://www.w3.org/2000/svg">
  <defs>
    <linearGradient id="sigGrad" x1="0%" y1="0%" x2="100%" y2="100%">
      <stop offset="0%" style="stop-color:#0EA5E9;stop-opacity:1" />
      <stop offset="100%" style="stop-color:#3B82F6;stop-opacity:1" />
    </linearGradient>
  </defs>

  <!-- Background -->
  <rect width="900" height="580" rx="12" fill="white"/>

  <!-- Title Bar -->
  <rect width="900" height="42" rx="12" fill="#F0F9FF"/>
  <rect y="30" width="900" height="12" fill="#F0F9FF"/>
  <rect y="42" width="900" height="1" fill="#BAE6FD"/>
  <circle cx="20" cy="21" r="6" fill="#FF5F57"/>
  <circle cx="38" cy="21" r="6" fill="#FEBC2E"/>
  <circle cx="56" cy="21" r="6" fill="#28C840"/>
  <text x="450" y="27" text-anchor="middle" font-family="Inter,Arial" font-size="13" fill="#0EA5E9" font-weight="500">Speed PDF — Sign Document</text>

  <!-- Split layout: PDF left, sign controls right -->

  <!-- PDF Viewer (left) -->
  <rect x="0" y="43" width="560" height="537" fill="#F8FAFF"/>
  <rect x="560" y="43" width="1" height="537" fill="#BAE6FD"/>

  <!-- Toolbar -->
  <rect x="0" y="43" width="560" height="44" fill="white"/>
  <rect x="0" y="87" width="560" height="1" fill="#E5E7EB"/>
  <rect x="12" y="55" width="55" height="24" rx="5" fill="white" stroke="#E5E7EB" stroke-width="1"/>
  <text x="39" y="71" text-anchor="middle" font-family="Inter,Arial" font-size="10" fill="#374151">← Back</text>
  <text x="300" y="70" text-anchor="middle" font-family="Inter,Arial" font-size="12" fill="#374151" font-weight="600">contract-2025.pdf  •  Page 3 of 8</text>

  <!-- PDF page -->
  <rect x="60" y="104" width="440" height="460" rx="6" fill="white" stroke="#E5E7EB" stroke-width="1"/>

  <!-- Document content -->
  <text x="90" y="130" font-family="Inter,Arial" font-size="14" fill="#111827" font-weight="700">SERVICE AGREEMENT</text>
  <rect x="90" y="138" width="380" height="1" fill="#E5E7EB"/>
  <rect x="90" y="148" width="380" height="5" rx="1" fill="#E5E7EB"/>
  <rect x="90" y="157" width="380" height="5" rx="1" fill="#E5E7EB"/>
  <rect x="90" y="166" width="280" height="5" rx="1" fill="#E5E7EB"/>
  <rect x="90" y="180" width="380" height="5" rx="1" fill="#E5E7EB"/>
  <rect x="90" y="189" width="380" height="5" rx="1" fill="#E5E7EB"/>
  <rect x="90" y="198" width="340" height="5" rx="1" fill="#E5E7EB"/>

  <text x="90" y="224" font-family="Inter,Arial" font-size="11" fill="#374151" font-weight="600">Section 4: Terms of Service</text>
  <rect x="90" y="232" width="380" height="4" rx="1" fill="#D1D5DB"/>
  <rect x="90" y="240" width="380" height="4" rx="1" fill="#D1D5DB"/>
  <rect x="90" y="248" width="380" height="4" rx="1" fill="#D1D5DB"/>
  <rect x="90" y="256" width="300" height="4" rx="1" fill="#D1D5DB"/>
  <rect x="90" y="268" width="380" height="4" rx="1" fill="#D1D5DB"/>
  <rect x="90" y="276" width="380" height="4" rx="1" fill="#D1D5DB"/>
  <rect x="90" y="284" width="200" height="4" rx="1" fill="#D1D5DB"/>

  <rect x="90" y="298" width="380" height="4" rx="1" fill="#D1D5DB"/>
  <rect x="90" y="306" width="380" height="4" rx="1" fill="#D1D5DB"/>
  <rect x="90" y="314" width="260" height="4" rx="1" fill="#D1D5DB"/>

  <!-- Signature area (highlighted) -->
  <rect x="90" y="360" width="380" height="120" rx="8" fill="#F0F9FF" stroke="#0EA5E9" stroke-width="2" stroke-dasharray="6,4"/>
  <text x="100" y="380" font-family="Inter,Arial" font-size="10" fill="#0EA5E9" font-weight="600">SIGNATURE REQUIRED</text>

  <!-- Signature drawn -->
  <path d="M110 430 Q140 400 160 420 Q180 440 200 410 Q220 380 240 415 Q260 450 280 420 Q300 390 320 425 Q340 460 360 430" stroke="#1D4ED8" stroke-width="2.5" fill="none" stroke-linecap="round" stroke-linejoin="round"/>

  <rect x="90" y="446" width="150" height="1" fill="#374151"/>
  <text x="90" y="458" font-family="Inter,Arial" font-size="9" fill="#6B7280">John Smith</text>
  <text x="90" y="470" font-family="Inter,Arial" font-size="9" fill="#9CA3AF">Date: April 28, 2025</text>

  <!-- Checkmark confirmed -->
  <circle cx="458" cy="428" r="14" fill="#22C55E"/>
  <path d="M450 428 l5 5 9-9" stroke="white" stroke-width="2.5" stroke-linecap="round" stroke-linejoin="round" fill="none"/>

  <!-- Right Panel: Signature Controls -->
  <rect x="561" y="43" width="339" height="537" fill="white"/>

  <!-- Panel header -->
  <rect x="561" y="43" width="339" height="60" fill="url(#sigGrad)"/>
  <text x="580" y="68" font-family="Inter,Arial" font-size="15" fill="white" font-weight="700">✍️ Sign Document</text>
  <text x="580" y="88" font-family="Inter,Arial" font-size="11" fill="#BAE6FD">2 signatures required  •  1 complete</text>

  <!-- Progress -->
  <rect x="580" y="104" width="299" height="8" rx="4" fill="#E5E7EB"/>
  <rect x="580" y="104" width="150" height="8" rx="4" fill="#22C55E"/>
  <text x="580" y="126" font-family="Inter,Arial" font-size="10" fill="#6B7280">50% signed</text>

  <!-- Signature fields list -->
  <text x="580" y="150" font-family="Inter,Arial" font-size="11" fill="#374151" font-weight="700">SIGNATURE FIELDS</text>

  <!-- Field 1 - Done -->
  <rect x="575" y="158" width="309" height="52" rx="8" fill="#F0FDF4" stroke="#86EFAC" stroke-width="1"/>
  <circle cx="598" cy="184" r="12" fill="#22C55E"/>
  <text x="598" y="189" text-anchor="middle" font-family="Arial" font-size="12" fill="white">✓</text>
  <text x="618" y="179" font-family="Inter,Arial" font-size="11" fill="#166534" font-weight="600">Signature — Page 3</text>
  <text x="618" y="194" font-family="Inter,Arial" font-size="10" fill="#22C55E">Signed by John Smith</text>
  <text x="618" y="206" font-family="Inter,Arial" font-size="9" fill="#9CA3AF">April 28, 2025 at 2:14 PM</text>

  <!-- Field 2 - Pending -->
  <rect x="575" y="218" width="309" height="52" rx="8" fill="#FFF7ED" stroke="#FED7AA" stroke-width="1"/>
  <circle cx="598" cy="244" r="12" fill="#F97316" fill-opacity="0.2" stroke="#F97316" stroke-width="1.5"/>
  <text x="598" y="249" text-anchor="middle" font-family="Arial" font-size="11" fill="#F97316">2</text>
  <text x="618" y="239" font-family="Inter,Arial" font-size="11" fill="#92400E" font-weight="600">Initials — Page 7</text>
  <text x="618" y="254" font-family="Inter,Arial" font-size="10" fill="#F97316">Awaiting signature</text>
  <rect x="618" y="259" width="60" height="6" rx="3" fill="#FED7AA"/>
  <rect x="748" y="236" width="72" height="24" rx="6" fill="#F97316"/>
  <text x="784" y="252" text-anchor="middle" font-family="Inter,Arial" font-size="10" fill="white" font-weight="600">Go to →</text>

  <!-- Divider -->
  <rect x="575" y="282" width="309" height="1" fill="#E5E7EB"/>
  <text x="580" y="300" font-family="Inter,Arial" font-size="11" fill="#374151" font-weight="700">YOUR SIGNATURES</text>

  <!-- Saved signatures -->
  <rect x="575" y="308" width="309" height="64" rx="8" fill="#F8FAFF" stroke="#E5E7EB" stroke-width="1"/>
  <text x="590" y="324" font-family="Inter,Arial" font-size="10" fill="#6B7280" font-weight="600">Saved Signature</text>
  <!-- Display signature -->
  <path d="M586 348 Q605 330 620 345 Q635 360 650 335 Q665 310 680 345 Q695 380 715 348" stroke="#1D4ED8" stroke-width="2" fill="none" stroke-linecap="round"/>
  <rect x="575" y="380" width="309" height="40" rx="8" fill="#F8FAFF" stroke="#E5E7EB" stroke-width="1"/>
  <text x="590" y="396" font-family="Inter,Arial" font-size="10" fill="#6B7280" font-weight="600">Saved Initials</text>
  <text x="640" y="406" font-family="Inter,Arial" font-size="14" fill="#1D4ED8" font-weight="700">JS</text>

  <rect x="575" y="428" width="148" height="28" rx="6" fill="white" stroke="#E5E7EB" stroke-width="1"/>
  <text x="649" y="446" text-anchor="middle" font-family="Inter,Arial" font-size="10" fill="#374151">Draw New</text>
  <rect x="737" y="428" width="148" height="28" rx="6" fill="white" stroke="#E5E7EB" stroke-width="1"/>
  <text x="811" y="446" text-anchor="middle" font-family="Inter,Arial" font-size="10" fill="#374151">Type Name</text>

  <!-- Actions -->
  <rect x="575" y="470" width="309" height="44" rx="10" fill="url(#sigGrad)"/>
  <text x="729" y="497" text-anchor="middle" font-family="Inter,Arial" font-size="13" fill="white" font-weight="700">Send Signed Document</text>

  <rect x="575" y="522" width="309" height="36" rx="10" fill="#F3F4F6"/>
  <text x="729" y="544" text-anchor="middle" font-family="Inter,Arial" font-size="12" fill="#374151">Download as PDF</text>

  <!-- Status bar -->
  <rect x="0" y="564" width="900" height="16" fill="#F9FAFB"/>
  <rect x="0" y="564" width="900" height="1" fill="#E5E7EB"/>
  <text x="12" y="576" font-family="Inter,Arial" font-size="9" fill="#9CA3AF">⚡ Speed PDF  •  Signature Tool  •  Encrypted with AES-256</text>
</svg>
